<svg viewBox="0 0 48 48" fill="none" xmlns="http://www.w3.org/2000/svg">
  <!-- Папка -->
  <path
    d="M8 12C8 9.79086 9.79086 8 12 8H20L24 12H36C38.2091 12 40 13.7909 40 16V36C40 38.2091 38.2091 40 36 40H12C9.79086 40 8 38.2091 8 36V12Z"
    fill="#007AFF"
  />
  
  <!-- Документ -->
  <path
    d="M32 16H24L20 12H12C9.79086 12 8 13.7909 8 16V36C8 38.2091 9.79086 40 12 40H36C38.2091 40 40 38.2091 40 36V20C40 17.7909 38.2091 16 36 16H32Z"
    fill="#FFFFFF"
  />
  
  <!-- Медицинский крест -->
  <path
    d="M24 20V28M20 24H28"
    stroke="#007AFF"
    stroke-width="3"
    stroke-linecap="round"
  />
</svg>
